<mxfile host="app.diagrams.net" modified="2023-08-28T03:11:01.239Z" agent="Mozilla/5.0 (Windows NT 10.0; Win64; x64) AppleWebKit/537.36 (KHTML, like Gecko) Chrome/115.0.0.0 Safari/537.36" etag="y3rwsnmYei6oaOmtmH8W" version="21.6.8" type="google">
  <diagram id="6lpktRMUdNyV_AXS6GPt" name="Page-1">
    <mxGraphModel grid="1" page="1" gridSize="10" guides="1" tooltips="1" connect="1" arrows="1" fold="1" pageScale="1" pageWidth="827" pageHeight="1169" math="0" shadow="0">
      <root>
        <mxCell id="0" />
        <mxCell id="1" parent="0" />
        <mxCell id="8Ne4wBraCfzsu7vq-3qB-45" value="" style="rounded=0;whiteSpace=wrap;html=1;" vertex="1" parent="1">
          <mxGeometry x="-360" y="90" width="1130" height="820" as="geometry" />
        </mxCell>
        <mxCell id="-YUbOd_ckBiP3jnt8C6B-16" value="Cars and Semaphores&amp;nbsp;" style="swimlane;whiteSpace=wrap;html=1;" vertex="1" parent="1">
          <mxGeometry x="-326" y="100" width="186" height="160" as="geometry" />
        </mxCell>
        <mxCell id="-YUbOd_ckBiP3jnt8C6B-50" value="Cars and Semaphores&amp;nbsp;" style="rounded=0;whiteSpace=wrap;html=1;fillColor=#ffe6cc;strokeColor=#d79b00;" vertex="1" parent="-YUbOd_ckBiP3jnt8C6B-16">
          <mxGeometry x="15" y="50" width="155" height="70" as="geometry" />
        </mxCell>
        <mxCell id="8Ne4wBraCfzsu7vq-3qB-10" value="" style="endArrow=classic;html=1;rounded=0;exitX=0.5;exitY=1;exitDx=0;exitDy=0;entryX=0.087;entryY=-0.002;entryDx=0;entryDy=0;entryPerimeter=0;" edge="1" parent="-YUbOd_ckBiP3jnt8C6B-16">
          <mxGeometry width="50" height="50" relative="1" as="geometry">
            <mxPoint x="50" y="120" as="sourcePoint" />
            <mxPoint x="51.45999999999981" y="349.76" as="targetPoint" />
          </mxGeometry>
        </mxCell>
        <mxCell id="8Ne4wBraCfzsu7vq-3qB-3" value="" style="endArrow=classic;html=1;rounded=0;entryX=0.786;entryY=0.02;entryDx=0;entryDy=0;exitX=0.148;exitY=1.013;exitDx=0;exitDy=0;exitPerimeter=0;entryPerimeter=0;" edge="1" parent="1" source="RWwlVH5rSrPmcXrSAEqf-1" target="RWwlVH5rSrPmcXrSAEqf-8">
          <mxGeometry width="50" height="50" relative="1" as="geometry">
            <mxPoint x="-167" y="570" as="sourcePoint" />
            <mxPoint x="-60" y="640" as="targetPoint" />
          </mxGeometry>
        </mxCell>
        <mxCell id="8Ne4wBraCfzsu7vq-3qB-22" value="" style="endArrow=classic;html=1;rounded=0;entryX=0.046;entryY=0.988;entryDx=0;entryDy=0;entryPerimeter=0;exitX=0.342;exitY=0.007;exitDx=0;exitDy=0;exitPerimeter=0;" edge="1" parent="1">
          <mxGeometry width="50" height="50" relative="1" as="geometry">
            <mxPoint x="-240.0040000000001" y="770.8499999999999" as="sourcePoint" />
            <mxPoint x="-239.59" y="569.15" as="targetPoint" />
          </mxGeometry>
        </mxCell>
        <mxCell id="8Ne4wBraCfzsu7vq-3qB-1" value="" style="endArrow=classic;html=1;rounded=0;entryX=0.046;entryY=0.988;entryDx=0;entryDy=0;entryPerimeter=0;exitX=0.179;exitY=0.02;exitDx=0;exitDy=0;exitPerimeter=0;" edge="1" parent="1" source="RWwlVH5rSrPmcXrSAEqf-8" target="RWwlVH5rSrPmcXrSAEqf-1">
          <mxGeometry width="50" height="50" relative="1" as="geometry">
            <mxPoint x="-160" y="790" as="sourcePoint" />
            <mxPoint x="-110" y="740" as="targetPoint" />
          </mxGeometry>
        </mxCell>
        <mxCell id="-YUbOd_ckBiP3jnt8C6B-36" value="" style="endArrow=classic;html=1;rounded=0;entryX=0.25;entryY=0;entryDx=0;entryDy=0;" edge="1" parent="1">
          <mxGeometry width="50" height="50" relative="1" as="geometry">
            <mxPoint x="200" y="570" as="sourcePoint" />
            <mxPoint x="200" y="785" as="targetPoint" />
          </mxGeometry>
        </mxCell>
        <mxCell id="-YUbOd_ckBiP3jnt8C6B-37" value="" style="endArrow=classic;html=1;rounded=0;entryX=0.25;entryY=0;entryDx=0;entryDy=0;" edge="1" parent="1">
          <mxGeometry width="50" height="50" relative="1" as="geometry">
            <mxPoint x="260" y="570" as="sourcePoint" />
            <mxPoint x="260" y="785" as="targetPoint" />
          </mxGeometry>
        </mxCell>
        <mxCell id="-YUbOd_ckBiP3jnt8C6B-38" value="" style="endArrow=classic;html=1;rounded=0;entryX=0.25;entryY=0;entryDx=0;entryDy=0;" edge="1" parent="1">
          <mxGeometry width="50" height="50" relative="1" as="geometry">
            <mxPoint x="320" y="570" as="sourcePoint" />
            <mxPoint x="320" y="785" as="targetPoint" />
          </mxGeometry>
        </mxCell>
        <mxCell id="-YUbOd_ckBiP3jnt8C6B-31" style="edgeStyle=orthogonalEdgeStyle;rounded=0;orthogonalLoop=1;jettySize=auto;html=1;exitX=0.25;exitY=0;exitDx=0;exitDy=0;entryX=0.366;entryY=1;entryDx=0;entryDy=0;entryPerimeter=0;" edge="1" parent="1">
          <mxGeometry relative="1" as="geometry">
            <mxPoint x="40.72" y="785" as="sourcePoint" />
            <mxPoint x="39.999999999999744" y="570" as="targetPoint" />
          </mxGeometry>
        </mxCell>
        <mxCell id="-YUbOd_ckBiP3jnt8C6B-41" value="- Battery Level" style="edgeLabel;html=1;align=center;verticalAlign=middle;resizable=0;points=[];labelBorderColor=default;rotation=-90;fontSize=14;" connectable="0" vertex="1" parent="-YUbOd_ckBiP3jnt8C6B-31">
          <mxGeometry x="0.2582" y="-2" relative="1" as="geometry">
            <mxPoint x="-2" as="offset" />
          </mxGeometry>
        </mxCell>
        <mxCell id="-YUbOd_ckBiP3jnt8C6B-32" style="edgeStyle=orthogonalEdgeStyle;rounded=0;orthogonalLoop=1;jettySize=auto;html=1;exitX=0.5;exitY=0;exitDx=0;exitDy=0;entryX=0.399;entryY=1;entryDx=0;entryDy=0;entryPerimeter=0;" edge="1" parent="1" source="-YUbOd_ckBiP3jnt8C6B-27" target="RWwlVH5rSrPmcXrSAEqf-1">
          <mxGeometry relative="1" as="geometry" />
        </mxCell>
        <mxCell id="-YUbOd_ckBiP3jnt8C6B-42" value="- IMU Data" style="edgeLabel;html=1;align=center;verticalAlign=middle;resizable=0;points=[];labelBorderColor=default;rotation=-90;fontSize=14;" connectable="0" vertex="1" parent="-YUbOd_ckBiP3jnt8C6B-32">
          <mxGeometry x="0.0237" relative="1" as="geometry">
            <mxPoint y="-25" as="offset" />
          </mxGeometry>
        </mxCell>
        <mxCell id="-YUbOd_ckBiP3jnt8C6B-33" style="edgeStyle=orthogonalEdgeStyle;rounded=0;orthogonalLoop=1;jettySize=auto;html=1;exitX=0.75;exitY=0;exitDx=0;exitDy=0;" edge="1" parent="1">
          <mxGeometry relative="1" as="geometry">
            <mxPoint x="160.52" y="785" as="sourcePoint" />
            <mxPoint x="160" y="570" as="targetPoint" />
          </mxGeometry>
        </mxCell>
        <mxCell id="-YUbOd_ckBiP3jnt8C6B-43" value="- Instant Consumption" style="edgeLabel;html=1;align=center;verticalAlign=middle;resizable=0;points=[];labelBorderColor=default;rotation=-90;fontSize=13;" connectable="0" vertex="1" parent="-YUbOd_ckBiP3jnt8C6B-33">
          <mxGeometry x="0.2575" y="-2" relative="1" as="geometry">
            <mxPoint x="-2" as="offset" />
          </mxGeometry>
        </mxCell>
        <mxCell id="RWwlVH5rSrPmcXrSAEqf-1" value="&lt;font style=&quot;font-size: 24px;&quot;&gt;GATEWAY PROCESS&lt;/font&gt;" style="rounded=0;whiteSpace=wrap;html=1;fillColor=#dae8fc;strokeColor=#6c8ebf;align=center;" vertex="1" parent="1">
          <mxGeometry x="-330" y="450" width="1080" height="120" as="geometry" />
        </mxCell>
        <mxCell id="-YUbOd_ckBiP3jnt8C6B-1" value="" style="endArrow=classic;html=1;rounded=0;entryX=0.873;entryY=1.021;entryDx=0;entryDy=0;entryPerimeter=0;exitX=0.5;exitY=0;exitDx=0;exitDy=0;labelBorderColor=default;" edge="1" parent="1" source="RWwlVH5rSrPmcXrSAEqf-10" target="RWwlVH5rSrPmcXrSAEqf-1">
          <mxGeometry width="50" height="50" relative="1" as="geometry">
            <mxPoint x="390" y="530" as="sourcePoint" />
            <mxPoint x="440" y="480" as="targetPoint" />
          </mxGeometry>
        </mxCell>
        <mxCell id="-YUbOd_ckBiP3jnt8C6B-10" value="- GPS Location&amp;nbsp;" style="edgeLabel;html=1;align=center;verticalAlign=middle;resizable=0;points=[];labelBorderColor=default;rotation=-90;fontSize=14;" connectable="0" vertex="1" parent="-YUbOd_ckBiP3jnt8C6B-1">
          <mxGeometry x="0.0003" y="-3" relative="1" as="geometry">
            <mxPoint x="-4" y="-14" as="offset" />
          </mxGeometry>
        </mxCell>
        <mxCell id="-YUbOd_ckBiP3jnt8C6B-20" value="Camera" style="swimlane;whiteSpace=wrap;html=1;" vertex="1" parent="1">
          <mxGeometry x="-330" y="730" width="220" height="160" as="geometry" />
        </mxCell>
        <mxCell id="RWwlVH5rSrPmcXrSAEqf-8" value="Camera Thread" style="rounded=0;whiteSpace=wrap;html=1;fillColor=#fff2cc;strokeColor=#d6b656;" vertex="1" parent="-YUbOd_ckBiP3jnt8C6B-20">
          <mxGeometry x="17" y="40" width="183" height="100" as="geometry" />
        </mxCell>
        <mxCell id="-YUbOd_ckBiP3jnt8C6B-25" value="Serial Handler" style="swimlane;whiteSpace=wrap;html=1;" vertex="1" parent="1">
          <mxGeometry x="11" y="730" width="339" height="160" as="geometry" />
        </mxCell>
        <mxCell id="-YUbOd_ckBiP3jnt8C6B-27" value="Serial Handler Read" style="rounded=0;whiteSpace=wrap;html=1;fillColor=#f8cecc;strokeColor=#b85450;" vertex="1" parent="-YUbOd_ckBiP3jnt8C6B-25">
          <mxGeometry x="20" y="55" width="140" height="70" as="geometry" />
        </mxCell>
        <mxCell id="RWwlVH5rSrPmcXrSAEqf-9" value="Serial Handler Write" style="rounded=0;whiteSpace=wrap;html=1;fillColor=#f8cecc;strokeColor=#b85450;" vertex="1" parent="-YUbOd_ckBiP3jnt8C6B-25">
          <mxGeometry x="180" y="55" width="140" height="70" as="geometry" />
        </mxCell>
        <mxCell id="-YUbOd_ckBiP3jnt8C6B-28" value="Traffic Communication" style="swimlane;whiteSpace=wrap;html=1;" vertex="1" parent="1">
          <mxGeometry x="481.25" y="730" width="268.75" height="160" as="geometry" />
        </mxCell>
        <mxCell id="RWwlVH5rSrPmcXrSAEqf-10" value="Traffic Communication Thread" style="rounded=0;whiteSpace=wrap;html=1;fillColor=#e1d5e7;strokeColor=#9673a6;" vertex="1" parent="-YUbOd_ckBiP3jnt8C6B-28">
          <mxGeometry x="67" y="45" width="126" height="70" as="geometry" />
        </mxCell>
        <mxCell id="-YUbOd_ckBiP3jnt8C6B-44" value="- Engine Start Flag" style="edgeLabel;html=1;align=center;verticalAlign=middle;resizable=0;points=[];labelBorderColor=default;rotation=-90;fontSize=14;" connectable="0" vertex="1" parent="1">
          <mxGeometry x="200.00267010078176" y="650.00211216401" as="geometry" />
        </mxCell>
        <mxCell id="-YUbOd_ckBiP3jnt8C6B-45" value="- Steer Angle" style="edgeLabel;html=1;align=center;verticalAlign=middle;resizable=0;points=[];labelBorderColor=default;rotation=-90;fontSize=15;" connectable="0" vertex="1" parent="1">
          <mxGeometry x="260.00267010078176" y="650.00211216401" as="geometry" />
        </mxCell>
        <mxCell id="-YUbOd_ckBiP3jnt8C6B-46" value="- Speed" style="edgeLabel;html=1;align=center;verticalAlign=middle;resizable=0;points=[];labelBorderColor=default;rotation=-90;fontSize=16;" connectable="0" vertex="1" parent="1">
          <mxGeometry x="320.00267010078176" y="650.00211216401" as="geometry">
            <mxPoint x="-1.0000000000000002" y="-3" as="offset" />
          </mxGeometry>
        </mxCell>
        <mxCell id="-YUbOd_ckBiP3jnt8C6B-47" value="PC Communication Demo" style="swimlane;whiteSpace=wrap;html=1;" vertex="1" parent="1">
          <mxGeometry x="11" y="100" width="379.5" height="160" as="geometry" />
        </mxCell>
        <mxCell id="-YUbOd_ckBiP3jnt8C6B-82" value="Remote Handler" style="rounded=0;whiteSpace=wrap;html=1;fillColor=#f5f5f5;fontColor=#333333;strokeColor=#666666;" vertex="1" parent="-YUbOd_ckBiP3jnt8C6B-47">
          <mxGeometry x="20" y="50" width="341" height="70" as="geometry" />
        </mxCell>
        <mxCell id="8Ne4wBraCfzsu7vq-3qB-19" value="" style="endArrow=classic;html=1;rounded=0;exitX=1;exitY=1;exitDx=0;exitDy=0;entryX=0.652;entryY=0.015;entryDx=0;entryDy=0;entryPerimeter=0;" edge="1" parent="-YUbOd_ckBiP3jnt8C6B-47">
          <mxGeometry width="50" height="50" relative="1" as="geometry">
            <mxPoint x="259" y="118" as="sourcePoint" />
            <mxPoint x="261" y="350" as="targetPoint" />
          </mxGeometry>
        </mxCell>
        <mxCell id="-YUbOd_ckBiP3jnt8C6B-64" value="- Steer Angle" style="edgeLabel;html=1;align=center;verticalAlign=middle;resizable=0;points=[];labelBorderColor=default;rotation=-90;fontSize=15;" connectable="0" vertex="1" parent="1">
          <mxGeometry x="320.00267010078176" y="670.00211216401" as="geometry">
            <mxPoint x="332" y="-52.00000000000002" as="offset" />
          </mxGeometry>
        </mxCell>
        <mxCell id="-YUbOd_ckBiP3jnt8C6B-68" value="" style="endArrow=classic;html=1;rounded=0;entryX=0;entryY=1;entryDx=0;entryDy=0;exitX=0.335;exitY=-0.017;exitDx=0;exitDy=0;exitPerimeter=0;" edge="1" parent="1" source="RWwlVH5rSrPmcXrSAEqf-1" target="-YUbOd_ckBiP3jnt8C6B-82">
          <mxGeometry width="50" height="50" relative="1" as="geometry">
            <mxPoint x="110" y="530" as="sourcePoint" />
            <mxPoint x="31" y="230" as="targetPoint" />
          </mxGeometry>
        </mxCell>
        <mxCell id="-YUbOd_ckBiP3jnt8C6B-69" value="" style="endArrow=classic;html=1;rounded=0;entryX=0.108;entryY=1.028;entryDx=0;entryDy=0;exitX=0.335;exitY=-0.017;exitDx=0;exitDy=0;exitPerimeter=0;entryPerimeter=0;" edge="1" parent="1" target="-YUbOd_ckBiP3jnt8C6B-82">
          <mxGeometry width="50" height="50" relative="1" as="geometry">
            <mxPoint x="72" y="449" as="sourcePoint" />
            <mxPoint x="67.5" y="230" as="targetPoint" />
          </mxGeometry>
        </mxCell>
        <mxCell id="-YUbOd_ckBiP3jnt8C6B-70" value="" style="endArrow=classic;html=1;rounded=0;entryX=0.211;entryY=1.061;entryDx=0;entryDy=0;exitX=0.401;exitY=0.003;exitDx=0;exitDy=0;exitPerimeter=0;entryPerimeter=0;" edge="1" parent="1" source="RWwlVH5rSrPmcXrSAEqf-1" target="-YUbOd_ckBiP3jnt8C6B-82">
          <mxGeometry width="50" height="50" relative="1" as="geometry">
            <mxPoint x="103" y="453" as="sourcePoint" />
            <mxPoint x="104" y="230" as="targetPoint" />
          </mxGeometry>
        </mxCell>
        <mxCell id="-YUbOd_ckBiP3jnt8C6B-71" value="" style="endArrow=classic;html=1;rounded=0;entryX=0.32;entryY=1.011;entryDx=0;entryDy=0;exitX=0.436;exitY=0.013;exitDx=0;exitDy=0;exitPerimeter=0;entryPerimeter=0;" edge="1" parent="1" source="RWwlVH5rSrPmcXrSAEqf-1" target="-YUbOd_ckBiP3jnt8C6B-82">
          <mxGeometry width="50" height="50" relative="1" as="geometry">
            <mxPoint x="152" y="450" as="sourcePoint" />
            <mxPoint x="140.5" y="230" as="targetPoint" />
          </mxGeometry>
        </mxCell>
        <mxCell id="-YUbOd_ckBiP3jnt8C6B-72" value="" style="endArrow=classic;html=1;rounded=0;entryX=0.427;entryY=1.036;entryDx=0;entryDy=0;exitX=0.472;exitY=0.003;exitDx=0;exitDy=0;exitPerimeter=0;entryPerimeter=0;" edge="1" parent="1" source="RWwlVH5rSrPmcXrSAEqf-1" target="-YUbOd_ckBiP3jnt8C6B-82">
          <mxGeometry width="50" height="50" relative="1" as="geometry">
            <mxPoint x="180" y="460" as="sourcePoint" />
            <mxPoint x="177" y="230" as="targetPoint" />
          </mxGeometry>
        </mxCell>
        <mxCell id="-YUbOd_ckBiP3jnt8C6B-73" value="- Recording Flag" style="edgeLabel;html=1;align=center;verticalAlign=middle;resizable=0;points=[];labelBorderColor=default;rotation=-90;fontSize=14;" connectable="0" vertex="1" parent="1">
          <mxGeometry x="30.002670100781756" y="360.00211216401" as="geometry" />
        </mxCell>
        <mxCell id="-YUbOd_ckBiP3jnt8C6B-74" value="- Engine Start Flag" style="edgeLabel;html=1;align=center;verticalAlign=middle;resizable=0;points=[];labelBorderColor=default;rotation=-90;fontSize=15;" connectable="0" vertex="1" parent="1">
          <mxGeometry x="70.00267010078176" y="360.00211216401" as="geometry" />
        </mxCell>
        <mxCell id="-YUbOd_ckBiP3jnt8C6B-75" value="- Engine Running Flag" style="edgeLabel;html=1;align=center;verticalAlign=middle;resizable=0;points=[];labelBorderColor=default;rotation=-90;fontSize=14;" connectable="0" vertex="1" parent="1">
          <mxGeometry x="100.00267010078176" y="360.00211216401" as="geometry" />
        </mxCell>
        <mxCell id="-YUbOd_ckBiP3jnt8C6B-76" value="- Positions Of Cars&lt;br style=&quot;font-size: 14px;&quot;&gt;" style="edgeLabel;html=1;align=center;verticalAlign=middle;resizable=0;points=[];labelBorderColor=default;rotation=-90;fontSize=14;" connectable="0" vertex="1" parent="1">
          <mxGeometry x="140.00267010078176" y="360.00211216401" as="geometry" />
        </mxCell>
        <mxCell id="-YUbOd_ckBiP3jnt8C6B-77" value="- Semaphore Pos and States" style="edgeLabel;html=1;align=center;verticalAlign=middle;resizable=0;points=[];labelBorderColor=default;rotation=-90;fontSize=13;" connectable="0" vertex="1" parent="1">
          <mxGeometry x="180.50267010078176" y="350.00211216401" as="geometry" />
        </mxCell>
        <mxCell id="-YUbOd_ckBiP3jnt8C6B-78" value="PC Communication DashBoard" style="swimlane;whiteSpace=wrap;html=1;" vertex="1" parent="1">
          <mxGeometry x="414" y="100" width="346" height="160" as="geometry" />
        </mxCell>
        <mxCell id="-YUbOd_ckBiP3jnt8C6B-81" value="Remote Handler" style="rounded=0;whiteSpace=wrap;html=1;fillColor=#d5e8d4;strokeColor=#82b366;" vertex="1" parent="-YUbOd_ckBiP3jnt8C6B-78">
          <mxGeometry x="10" y="55" width="310" height="65" as="geometry" />
        </mxCell>
        <mxCell id="8Ne4wBraCfzsu7vq-3qB-7" value="" style="endArrow=classic;html=1;rounded=0;entryX=0;entryY=1;entryDx=0;entryDy=0;exitX=0.335;exitY=-0.017;exitDx=0;exitDy=0;exitPerimeter=0;" edge="1" parent="-YUbOd_ckBiP3jnt8C6B-78">
          <mxGeometry width="50" height="50" relative="1" as="geometry">
            <mxPoint x="17" y="348" as="sourcePoint" />
            <mxPoint x="16" y="120" as="targetPoint" />
          </mxGeometry>
        </mxCell>
        <mxCell id="8Ne4wBraCfzsu7vq-3qB-8" value="" style="endArrow=classic;html=1;rounded=0;entryX=0;entryY=1;entryDx=0;entryDy=0;exitX=0.335;exitY=-0.017;exitDx=0;exitDy=0;exitPerimeter=0;" edge="1" parent="-YUbOd_ckBiP3jnt8C6B-78">
          <mxGeometry width="50" height="50" relative="1" as="geometry">
            <mxPoint x="57" y="348" as="sourcePoint" />
            <mxPoint x="56" y="120" as="targetPoint" />
          </mxGeometry>
        </mxCell>
        <mxCell id="8Ne4wBraCfzsu7vq-3qB-9" value="" style="endArrow=classic;html=1;rounded=0;entryX=0;entryY=1;entryDx=0;entryDy=0;exitX=0.335;exitY=-0.017;exitDx=0;exitDy=0;exitPerimeter=0;" edge="1" parent="-YUbOd_ckBiP3jnt8C6B-78">
          <mxGeometry width="50" height="50" relative="1" as="geometry">
            <mxPoint x="87" y="348" as="sourcePoint" />
            <mxPoint x="86" y="120" as="targetPoint" />
          </mxGeometry>
        </mxCell>
        <mxCell id="8Ne4wBraCfzsu7vq-3qB-27" value="" style="endArrow=classic;html=1;rounded=0;entryX=0;entryY=1;entryDx=0;entryDy=0;exitX=0.335;exitY=-0.017;exitDx=0;exitDy=0;exitPerimeter=0;" edge="1" parent="-YUbOd_ckBiP3jnt8C6B-78">
          <mxGeometry width="50" height="50" relative="1" as="geometry">
            <mxPoint x="177" y="348" as="sourcePoint" />
            <mxPoint x="176" y="120" as="targetPoint" />
          </mxGeometry>
        </mxCell>
        <mxCell id="8Ne4wBraCfzsu7vq-3qB-28" value="" style="endArrow=classic;html=1;rounded=0;entryX=0;entryY=1;entryDx=0;entryDy=0;exitX=0.335;exitY=-0.017;exitDx=0;exitDy=0;exitPerimeter=0;" edge="1" parent="-YUbOd_ckBiP3jnt8C6B-78">
          <mxGeometry width="50" height="50" relative="1" as="geometry">
            <mxPoint x="207" y="348" as="sourcePoint" />
            <mxPoint x="206" y="120" as="targetPoint" />
          </mxGeometry>
        </mxCell>
        <mxCell id="8Ne4wBraCfzsu7vq-3qB-29" value="" style="endArrow=classic;html=1;rounded=0;entryX=0;entryY=1;entryDx=0;entryDy=0;exitX=0.335;exitY=-0.017;exitDx=0;exitDy=0;exitPerimeter=0;" edge="1" parent="-YUbOd_ckBiP3jnt8C6B-78">
          <mxGeometry width="50" height="50" relative="1" as="geometry">
            <mxPoint x="237" y="348" as="sourcePoint" />
            <mxPoint x="236" y="120" as="targetPoint" />
          </mxGeometry>
        </mxCell>
        <mxCell id="8Ne4wBraCfzsu7vq-3qB-30" value="- GPS Location" style="edgeLabel;html=1;align=center;verticalAlign=middle;resizable=0;points=[];labelBorderColor=default;rotation=-90;fontSize=14;" connectable="0" vertex="1" parent="-YUbOd_ckBiP3jnt8C6B-78">
          <mxGeometry x="56.0049615222847" y="249.9966787393123" as="geometry" />
        </mxCell>
        <mxCell id="8Ne4wBraCfzsu7vq-3qB-36" value="- Average of Consumption" style="edgeLabel;html=1;align=center;verticalAlign=middle;resizable=0;points=[];labelBorderColor=default;rotation=-90;fontSize=14;" connectable="0" vertex="1" parent="-YUbOd_ckBiP3jnt8C6B-78">
          <mxGeometry x="236.0049615222847" y="249.9966787393123" as="geometry" />
        </mxCell>
        <mxCell id="8Ne4wBraCfzsu7vq-3qB-2" value="- serial Camera" style="edgeLabel;html=1;align=center;verticalAlign=middle;resizable=0;points=[];labelBorderColor=default;rotation=-90;fontSize=14;" connectable="0" vertex="1" parent="1">
          <mxGeometry x="-289.99936676889104" y="659.9399907489897" as="geometry">
            <mxPoint x="5" y="9" as="offset" />
          </mxGeometry>
        </mxCell>
        <mxCell id="8Ne4wBraCfzsu7vq-3qB-4" value="- Recording Flag" style="edgeLabel;html=1;align=center;verticalAlign=middle;resizable=0;points=[];labelBorderColor=default;rotation=-90;fontSize=14;" connectable="0" vertex="1" parent="1">
          <mxGeometry x="-169.99936676889104" y="639.9999907489896" as="geometry">
            <mxPoint x="-11" y="1.0000000000000009" as="offset" />
          </mxGeometry>
        </mxCell>
        <mxCell id="8Ne4wBraCfzsu7vq-3qB-5" style="edgeStyle=orthogonalEdgeStyle;rounded=0;orthogonalLoop=1;jettySize=auto;html=1;entryX=0.645;entryY=0.008;entryDx=0;entryDy=0;entryPerimeter=0;" edge="1" parent="1">
          <mxGeometry relative="1" as="geometry">
            <mxPoint x="730" y="219" as="sourcePoint" />
            <mxPoint x="730" y="450" as="targetPoint" />
            <Array as="points">
              <mxPoint x="730" y="219" />
            </Array>
          </mxGeometry>
        </mxCell>
        <mxCell id="8Ne4wBraCfzsu7vq-3qB-11" value="- Semaphore Pos and States" style="edgeLabel;html=1;align=center;verticalAlign=middle;resizable=0;points=[];labelBorderColor=default;rotation=-90;fontSize=14;" connectable="0" vertex="1" parent="1">
          <mxGeometry x="-279.99732989921824" y="330.00211216401" as="geometry">
            <mxPoint x="6.123233995736766e-17" y="1" as="offset" />
          </mxGeometry>
        </mxCell>
        <mxCell id="8Ne4wBraCfzsu7vq-3qB-12" value="" style="endArrow=classic;html=1;rounded=0;exitX=0.5;exitY=1;exitDx=0;exitDy=0;entryX=0.087;entryY=-0.002;entryDx=0;entryDy=0;entryPerimeter=0;" edge="1" parent="1">
          <mxGeometry width="50" height="50" relative="1" as="geometry">
            <mxPoint x="-200" y="220.24" as="sourcePoint" />
            <mxPoint x="-198.5400000000002" y="450" as="targetPoint" />
          </mxGeometry>
        </mxCell>
        <mxCell id="8Ne4wBraCfzsu7vq-3qB-13" value="- Positions of Cars" style="edgeLabel;html=1;align=center;verticalAlign=middle;resizable=0;points=[];labelBorderColor=default;rotation=-90;fontSize=14;" connectable="0" vertex="1" parent="1">
          <mxGeometry x="-199.99732989921824" y="330.00211216401" as="geometry">
            <mxPoint x="6.123233995736766e-17" y="1" as="offset" />
          </mxGeometry>
        </mxCell>
        <mxCell id="8Ne4wBraCfzsu7vq-3qB-16" value="" style="endArrow=classic;html=1;rounded=0;exitX=1;exitY=1;exitDx=0;exitDy=0;entryX=0.652;entryY=0.015;entryDx=0;entryDy=0;entryPerimeter=0;" edge="1" parent="1" source="-YUbOd_ckBiP3jnt8C6B-82" target="RWwlVH5rSrPmcXrSAEqf-1">
          <mxGeometry width="50" height="50" relative="1" as="geometry">
            <mxPoint x="280" y="350" as="sourcePoint" />
            <mxPoint x="370" y="450" as="targetPoint" />
          </mxGeometry>
        </mxCell>
        <mxCell id="-YUbOd_ckBiP3jnt8C6B-67" value="- Recording Flag" style="edgeLabel;html=1;align=center;verticalAlign=middle;resizable=0;points=[];labelBorderColor=default;rotation=-90;fontSize=14;" connectable="0" vertex="1" parent="1">
          <mxGeometry x="370.00267010078176" y="330.00211216401" as="geometry" />
        </mxCell>
        <mxCell id="8Ne4wBraCfzsu7vq-3qB-17" value="" style="endArrow=classic;html=1;rounded=0;exitX=0.901;exitY=1.033;exitDx=0;exitDy=0;entryX=0.652;entryY=0.015;entryDx=0;entryDy=0;entryPerimeter=0;exitPerimeter=0;" edge="1" parent="1" source="-YUbOd_ckBiP3jnt8C6B-82">
          <mxGeometry width="50" height="50" relative="1" as="geometry">
            <mxPoint x="340" y="218" as="sourcePoint" />
            <mxPoint x="342" y="450" as="targetPoint" />
          </mxGeometry>
        </mxCell>
        <mxCell id="-YUbOd_ckBiP3jnt8C6B-66" value="- Engine Start Flag" style="edgeLabel;html=1;align=center;verticalAlign=middle;resizable=0;points=[];labelBorderColor=default;rotation=-90;fontSize=14;" connectable="0" vertex="1" parent="1">
          <mxGeometry x="340.00267010078176" y="340.00211216401" as="geometry" />
        </mxCell>
        <mxCell id="8Ne4wBraCfzsu7vq-3qB-18" value="" style="endArrow=classic;html=1;rounded=0;exitX=0.803;exitY=1.047;exitDx=0;exitDy=0;entryX=0.59;entryY=0.008;entryDx=0;entryDy=0;entryPerimeter=0;exitPerimeter=0;" edge="1" parent="1" source="-YUbOd_ckBiP3jnt8C6B-82" target="RWwlVH5rSrPmcXrSAEqf-1">
          <mxGeometry width="50" height="50" relative="1" as="geometry">
            <mxPoint x="310" y="218" as="sourcePoint" />
            <mxPoint x="312" y="450" as="targetPoint" />
          </mxGeometry>
        </mxCell>
        <mxCell id="-YUbOd_ckBiP3jnt8C6B-65" value="- Speed&lt;br style=&quot;font-size: 14px;&quot;&gt;" style="edgeLabel;html=1;align=center;verticalAlign=middle;resizable=0;points=[];labelBorderColor=default;rotation=-90;fontSize=14;" connectable="0" vertex="1" parent="1">
          <mxGeometry x="300.00267010078176" y="350.00211216401" as="geometry">
            <mxPoint x="23" y="5.999999999999998" as="offset" />
          </mxGeometry>
        </mxCell>
        <mxCell id="8Ne4wBraCfzsu7vq-3qB-20" value="" style="endArrow=classic;html=1;rounded=0;entryX=0;entryY=1;entryDx=0;entryDy=0;exitX=0.335;exitY=-0.017;exitDx=0;exitDy=0;exitPerimeter=0;" edge="1" parent="1">
          <mxGeometry width="50" height="50" relative="1" as="geometry">
            <mxPoint x="210.5" y="450" as="sourcePoint" />
            <mxPoint x="209.5" y="222" as="targetPoint" />
          </mxGeometry>
        </mxCell>
        <mxCell id="8Ne4wBraCfzsu7vq-3qB-21" value="- serial Camera" style="edgeLabel;html=1;align=center;verticalAlign=middle;resizable=0;points=[];labelBorderColor=default;rotation=-90;fontSize=15;" connectable="0" vertex="1" parent="1">
          <mxGeometry x="260.00267010078176" y="680.00211216401" as="geometry">
            <mxPoint x="332" y="-52.00000000000002" as="offset" />
          </mxGeometry>
        </mxCell>
        <mxCell id="8Ne4wBraCfzsu7vq-3qB-23" value="- main Camera" style="edgeLabel;html=1;align=center;verticalAlign=middle;resizable=0;points=[];labelBorderColor=default;rotation=-90;fontSize=14;" connectable="0" vertex="1" parent="1">
          <mxGeometry x="-249.99936676889104" y="659.9399907489897" as="geometry">
            <mxPoint x="5" y="9" as="offset" />
          </mxGeometry>
        </mxCell>
        <mxCell id="8Ne4wBraCfzsu7vq-3qB-6" style="edgeStyle=orthogonalEdgeStyle;rounded=0;orthogonalLoop=1;jettySize=auto;html=1;entryX=0.645;entryY=0.008;entryDx=0;entryDy=0;entryPerimeter=0;" edge="1" parent="1">
          <mxGeometry relative="1" as="geometry">
            <mxPoint x="700" y="220" as="sourcePoint" />
            <mxPoint x="700" y="451" as="targetPoint" />
            <Array as="points">
              <mxPoint x="700" y="220" />
            </Array>
          </mxGeometry>
        </mxCell>
        <mxCell id="8Ne4wBraCfzsu7vq-3qB-14" value="- main Camera" style="edgeLabel;html=1;align=center;verticalAlign=middle;resizable=0;points=[];labelBorderColor=default;rotation=-90;fontSize=14;" connectable="0" vertex="1" parent="1">
          <mxGeometry x="430.0049615222847" y="349.9966787393123" as="geometry" />
        </mxCell>
        <mxCell id="8Ne4wBraCfzsu7vq-3qB-25" value="" style="endArrow=classic;html=1;rounded=0;entryX=0;entryY=1;entryDx=0;entryDy=0;exitX=0.335;exitY=-0.017;exitDx=0;exitDy=0;exitPerimeter=0;" edge="1" parent="1">
          <mxGeometry width="50" height="50" relative="1" as="geometry">
            <mxPoint x="531" y="450" as="sourcePoint" />
            <mxPoint x="530" y="222" as="targetPoint" />
          </mxGeometry>
        </mxCell>
        <mxCell id="8Ne4wBraCfzsu7vq-3qB-26" value="" style="endArrow=classic;html=1;rounded=0;exitX=0.335;exitY=-0.017;exitDx=0;exitDy=0;exitPerimeter=0;" edge="1" parent="1">
          <mxGeometry width="50" height="50" relative="1" as="geometry">
            <mxPoint x="561" y="450" as="sourcePoint" />
            <mxPoint x="560" y="220" as="targetPoint" />
          </mxGeometry>
        </mxCell>
        <mxCell id="8Ne4wBraCfzsu7vq-3qB-31" value="- Engine Start Flag" style="edgeLabel;html=1;align=center;verticalAlign=middle;resizable=0;points=[];labelBorderColor=default;rotation=-90;fontSize=14;" connectable="0" vertex="1" parent="1">
          <mxGeometry x="500.0049615222847" y="350.0066787393123" as="geometry" />
        </mxCell>
        <mxCell id="8Ne4wBraCfzsu7vq-3qB-32" value="- Engine Running Flag" style="edgeLabel;html=1;align=center;verticalAlign=middle;resizable=0;points=[];labelBorderColor=default;rotation=-90;fontSize=14;" connectable="0" vertex="1" parent="1">
          <mxGeometry x="530.0049615222847" y="350.0066787393123" as="geometry" />
        </mxCell>
        <mxCell id="8Ne4wBraCfzsu7vq-3qB-33" value="- Speed" style="edgeLabel;html=1;align=center;verticalAlign=middle;resizable=0;points=[];labelBorderColor=default;rotation=-90;fontSize=14;" connectable="0" vertex="1" parent="1">
          <mxGeometry x="556" y="349.9966787393123" as="geometry">
            <mxPoint x="2.0000000000000004" y="4" as="offset" />
          </mxGeometry>
        </mxCell>
        <mxCell id="8Ne4wBraCfzsu7vq-3qB-34" value="- Battery Level" style="edgeLabel;html=1;align=center;verticalAlign=middle;resizable=0;points=[];labelBorderColor=default;rotation=-90;fontSize=14;" connectable="0" vertex="1" parent="1">
          <mxGeometry x="590.0049615222847" y="349.9966787393123" as="geometry" />
        </mxCell>
        <mxCell id="8Ne4wBraCfzsu7vq-3qB-37" value="" style="endArrow=classic;html=1;rounded=0;entryX=0;entryY=1;entryDx=0;entryDy=0;exitX=0.335;exitY=-0.017;exitDx=0;exitDy=0;exitPerimeter=0;" edge="1" parent="1">
          <mxGeometry width="50" height="50" relative="1" as="geometry">
            <mxPoint x="241" y="450" as="sourcePoint" />
            <mxPoint x="240" y="222" as="targetPoint" />
          </mxGeometry>
        </mxCell>
        <mxCell id="8Ne4wBraCfzsu7vq-3qB-38" value="- GPS Location" style="edgeLabel;html=1;align=center;verticalAlign=middle;resizable=0;points=[];labelBorderColor=default;rotation=-90;fontSize=15;" connectable="0" vertex="1" parent="1">
          <mxGeometry x="290.00267010078176" y="690.00211216401" as="geometry">
            <mxPoint x="332" y="-52.00000000000002" as="offset" />
          </mxGeometry>
        </mxCell>
        <mxCell id="8Ne4wBraCfzsu7vq-3qB-35" value="- Instant Consumption" style="edgeLabel;html=1;align=center;verticalAlign=middle;resizable=0;points=[];labelBorderColor=default;rotation=-90;fontSize=14;" connectable="0" vertex="1" parent="1">
          <mxGeometry x="618" y="359.9966787393123" as="geometry">
            <mxPoint x="2" y="1.9999999999999998" as="offset" />
          </mxGeometry>
        </mxCell>
        <mxCell id="8Ne4wBraCfzsu7vq-3qB-39" value="- Engine Start Flag" style="edgeLabel;html=1;align=center;verticalAlign=middle;resizable=0;points=[];labelBorderColor=default;rotation=-90;fontSize=14;" connectable="0" vertex="1" parent="1">
          <mxGeometry x="698" y="340.0066787393123" as="geometry" />
        </mxCell>
        <mxCell id="8Ne4wBraCfzsu7vq-3qB-40" value="- Camera Configuration" style="edgeLabel;html=1;align=center;verticalAlign=middle;resizable=0;points=[];labelBorderColor=default;rotation=-90;fontSize=14;" connectable="0" vertex="1" parent="1">
          <mxGeometry x="730" y="340.0066787393123" as="geometry" />
        </mxCell>
      </root>
    </mxGraphModel>
  </diagram>
</mxfile>
